<svg width="570" height="148" viewBox="0 0 570 148" fill="none" xmlns="http://www.w3.org/2000/svg">
<g style="mix-blend-mode:overlay">
<path d="M121.805 39.7852C121.805 45.2539 120.698 49.9414 118.484 53.8477C116.336 57.7539 113.406 61.1068 109.695 63.9062C106.049 66.7057 101.785 69.082 96.9023 71.0352C92.0195 72.9883 86.8763 74.7786 81.4727 76.4062C76.069 77.9688 70.5352 79.5312 64.8711 81.0938C59.2721 82.5911 53.8685 84.3164 48.6602 86.2695C43.5169 88.1576 38.7318 90.4036 34.3047 93.0078C29.8776 95.5469 26.1667 98.6719 23.1719 102.383H123.172C120.698 104.792 118.615 107.591 116.922 110.781C115.229 113.971 113.862 117.031 112.82 119.961C111.648 123.411 110.704 126.895 109.988 130.41L105.398 131.387C105.724 130.215 105.919 129.01 105.984 127.773C106.115 126.602 106.18 125.625 106.18 124.844C106.18 121.523 105.333 118.887 103.641 116.934C102.013 114.98 99.6367 113.483 96.5117 112.441C93.3867 111.4 89.6107 110.716 85.1836 110.391C80.7565 110.13 75.776 110 70.2422 110H0.613281C5.75651 104.206 10.9648 99.2578 16.2383 95.1562C21.5768 90.9896 26.8177 87.4089 31.9609 84.4141C37.1042 81.4193 42.0846 78.8477 46.9023 76.6992C51.7201 74.4857 56.2448 72.4674 60.4766 70.6445C64.7734 68.7565 68.6797 66.8685 72.1953 64.9805C75.776 63.0924 78.8359 60.9115 81.375 58.4375C83.9141 55.9635 85.8672 53.0664 87.2344 49.7461C88.6667 46.4258 89.3828 42.3893 89.3828 37.6367C89.3828 34.2513 88.862 30.7357 87.8203 27.0898C86.8438 23.3789 85.2161 19.9935 82.9375 16.9336C80.6589 13.8086 77.6966 11.237 74.0508 9.21875C70.4049 7.20052 65.9128 6.19141 60.5742 6.19141C55.6263 6.19141 51.2643 6.97266 47.4883 8.53516C43.7773 10.0977 40.5547 12.1159 37.8203 14.5898C35.0859 17.0638 32.8073 19.7982 30.9844 22.793C29.2266 25.7878 27.7617 28.7174 26.5898 31.582C25.4831 34.3815 24.6693 36.9531 24.1484 39.2969C23.6276 41.6406 23.3021 43.3984 23.1719 44.5703L2.56641 33.0469C6.53776 27.1224 10.5742 22.1094 14.6758 18.0078C18.8424 13.8411 23.2695 10.4883 27.957 7.94922C32.7096 5.34505 37.8203 3.48958 43.2891 2.38281C48.7578 1.21094 54.8125 0.625 61.4531 0.625C69.7214 0.625 77.5013 1.3737 84.793 2.87109C92.1497 4.30339 98.5625 6.58203 104.031 9.70703C109.5 12.832 113.829 16.8685 117.02 21.8164C120.21 26.7643 121.805 32.7539 121.805 39.7852ZM281.668 57.168C281.668 63.8737 280.691 69.9284 278.738 75.332C276.785 80.6706 274.116 85.3906 270.73 89.4922C267.345 93.5938 263.374 97.1419 258.816 100.137C254.259 103.066 249.409 105.475 244.266 107.363C239.122 109.251 233.751 110.618 228.152 111.465C222.618 112.376 217.182 112.832 211.844 112.832C206.18 112.832 200.516 112.344 194.852 111.367C189.188 110.456 183.751 109.023 178.543 107.07C173.4 105.052 168.582 102.546 164.09 99.5508C159.598 96.4909 155.691 92.9102 152.371 88.8086C149.116 84.707 146.544 80.0521 144.656 74.8438C142.768 69.5703 141.824 63.7435 141.824 57.3633C141.824 50.918 142.768 45.0911 144.656 39.8828C146.544 34.6094 149.148 29.9219 152.469 25.8203C155.789 21.7188 159.695 18.1706 164.188 15.1758C168.745 12.181 173.628 9.70703 178.836 7.75391C184.044 5.80078 189.513 4.36849 195.242 3.45703C200.971 2.48047 206.701 1.99219 212.43 1.99219C217.964 1.99219 223.53 2.44792 229.129 3.35938C234.728 4.27083 240.099 5.70312 245.242 7.65625C250.385 9.54427 255.171 11.9857 259.598 14.9805C264.025 17.9102 267.866 21.4258 271.121 25.5273C274.376 29.5638 276.948 34.2188 278.836 39.4922C280.724 44.7656 281.668 50.6576 281.668 57.168ZM251.297 57.168C251.297 50.7878 250.385 44.668 248.562 38.8086C246.74 32.9492 244.103 27.806 240.652 23.3789C237.267 18.8867 233.1 15.306 228.152 12.6367C223.204 9.96745 217.638 8.63281 211.453 8.63281C205.594 8.63281 200.255 9.86979 195.438 12.3438C190.62 14.7526 186.486 18.1055 183.035 22.4023C179.65 26.6341 177.013 31.6797 175.125 37.5391C173.237 43.3333 172.293 49.6159 172.293 56.3867C172.293 63.2227 173.237 69.7005 175.125 75.8203C177.013 81.875 179.65 87.181 183.035 91.7383C186.421 96.2305 190.49 99.8112 195.242 102.48C199.995 105.085 205.268 106.387 211.062 106.387C216.661 106.387 221.902 105.15 226.785 102.676C231.668 100.137 235.932 96.6536 239.578 92.2266C243.224 87.7995 246.089 82.5911 248.172 76.6016C250.255 70.612 251.297 64.1341 251.297 57.168ZM421.219 39.7852C421.219 45.2539 420.112 49.9414 417.898 53.8477C415.75 57.7539 412.82 61.1068 409.109 63.9062C405.464 66.7057 401.199 69.082 396.316 71.0352C391.434 72.9883 386.29 74.7786 380.887 76.4062C375.483 77.9688 369.949 79.5312 364.285 81.0938C358.686 82.5911 353.283 84.3164 348.074 86.2695C342.931 88.1576 338.146 90.4036 333.719 93.0078C329.292 95.5469 325.581 98.6719 322.586 102.383H422.586C420.112 104.792 418.029 107.591 416.336 110.781C414.643 113.971 413.276 117.031 412.234 119.961C411.062 123.411 410.118 126.895 409.402 130.41L404.812 131.387C405.138 130.215 405.333 129.01 405.398 127.773C405.529 126.602 405.594 125.625 405.594 124.844C405.594 121.523 404.747 118.887 403.055 116.934C401.427 114.98 399.051 113.483 395.926 112.441C392.801 111.4 389.025 110.716 384.598 110.391C380.171 110.13 375.19 110 369.656 110H300.027C305.171 104.206 310.379 99.2578 315.652 95.1562C320.991 90.9896 326.232 87.4089 331.375 84.4141C336.518 81.4193 341.499 78.8477 346.316 76.6992C351.134 74.4857 355.659 72.4674 359.891 70.6445C364.188 68.7565 368.094 66.8685 371.609 64.9805C375.19 63.0924 378.25 60.9115 380.789 58.4375C383.328 55.9635 385.281 53.0664 386.648 49.7461C388.081 46.4258 388.797 42.3893 388.797 37.6367C388.797 34.2513 388.276 30.7357 387.234 27.0898C386.258 23.3789 384.63 19.9935 382.352 16.9336C380.073 13.8086 377.111 11.237 373.465 9.21875C369.819 7.20052 365.327 6.19141 359.988 6.19141C355.04 6.19141 350.678 6.97266 346.902 8.53516C343.191 10.0977 339.969 12.1159 337.234 14.5898C334.5 17.0638 332.221 19.7982 330.398 22.793C328.641 25.7878 327.176 28.7174 326.004 31.582C324.897 34.3815 324.083 36.9531 323.562 39.2969C323.042 41.6406 322.716 43.3984 322.586 44.5703L301.98 33.0469C305.952 27.1224 309.988 22.1094 314.09 18.0078C318.257 13.8411 322.684 10.4883 327.371 7.94922C332.124 5.34505 337.234 3.48958 342.703 2.38281C348.172 1.21094 354.227 0.625 360.867 0.625C369.135 0.625 376.915 1.3737 384.207 2.87109C391.564 4.30339 397.977 6.58203 403.445 9.70703C408.914 12.832 413.243 16.8685 416.434 21.8164C419.624 26.7643 421.219 32.7539 421.219 39.7852ZM498.27 147.402C491.759 147.402 485.411 146.686 479.227 145.254C473.042 143.822 467.215 141.641 461.746 138.711C456.342 135.846 451.395 132.201 446.902 127.773C442.41 123.411 438.602 118.301 435.477 112.441L460.477 100.43C461.128 105.508 462.495 110.488 464.578 115.371C466.727 120.254 469.461 124.616 472.781 128.457C476.102 132.363 480.008 135.488 484.5 137.832C488.992 140.241 493.973 141.445 499.441 141.445C501.655 141.445 504.161 141.152 506.961 140.566C509.826 140.046 512.69 139.167 515.555 137.93C518.484 136.758 521.316 135.228 524.051 133.34C526.85 131.452 529.324 129.108 531.473 126.309C533.686 123.574 535.444 120.384 536.746 116.738C538.048 113.158 538.699 109.056 538.699 104.434C538.699 100.007 538.178 96.1003 537.137 92.7148C536.095 89.3294 534.663 86.3997 532.84 83.9258C531.017 81.3867 528.868 79.3034 526.395 77.6758C523.986 75.9831 521.382 74.6484 518.582 73.6719C515.783 72.6302 512.885 71.9141 509.891 71.5234C506.896 71.0677 503.901 70.8398 500.906 70.8398H481.668V61.1719H500.906C505.659 61.1719 509.76 60.4883 513.211 59.1211C516.727 57.6888 519.624 55.8008 521.902 53.457C524.246 51.1133 525.971 48.3789 527.078 45.2539C528.25 42.1289 528.836 38.8411 528.836 35.3906C528.836 31.2891 528.087 27.5456 526.59 24.1602C525.092 20.7096 523.042 17.7799 520.438 15.3711C517.833 12.8971 514.741 10.9766 511.16 9.60938C507.645 8.24219 503.803 7.55859 499.637 7.55859C496.316 7.55859 492.964 8.07943 489.578 9.12109C486.193 10.0977 482.938 11.6276 479.812 13.7109C476.688 15.7292 473.79 18.3008 471.121 21.4258C468.517 24.5508 466.303 28.2617 464.48 32.5586L447.684 20.3516C450.678 17.487 453.966 14.9154 457.547 12.6367C461.193 10.293 465.164 8.30729 469.461 6.67969C473.823 5.05208 478.543 3.8151 483.621 2.96875C488.764 2.05729 494.331 1.60156 500.32 1.60156C504.747 1.60156 509.272 1.86198 513.895 2.38281C518.517 2.90365 523.009 3.71745 527.371 4.82422C531.733 5.93099 535.835 7.39583 539.676 9.21875C543.517 10.9766 546.87 13.125 549.734 15.6641C552.664 18.2031 554.943 21.1654 556.57 24.5508C558.263 27.9362 559.109 31.7448 559.109 35.9766C559.109 39.9479 558.426 43.5286 557.059 46.7188C555.691 49.8438 553.901 52.6107 551.688 55.0195C549.539 57.4284 547.13 59.4792 544.461 61.1719C541.792 62.8646 539.188 64.1992 536.648 65.1758C541.271 66.1523 545.535 67.6823 549.441 69.7656C553.413 71.7839 556.831 74.3229 559.695 77.3828C562.625 80.3776 564.904 83.8932 566.531 87.9297C568.224 91.9661 569.07 96.5234 569.07 101.602C569.07 107.201 567.964 112.181 565.75 116.543C563.602 120.97 560.704 124.876 557.059 128.262C553.413 131.712 549.181 134.642 544.363 137.051C539.611 139.46 534.598 141.413 529.324 142.91C524.116 144.473 518.81 145.612 513.406 146.328C508.068 147.044 503.022 147.402 498.27 147.402Z" fill="#352929"/>
</g>
</svg>
